<svg xmlns="http://www.w3.org/2000/svg" width="600" height="400" viewBox="0 0 600 400"><defs><linearGradient id="bg" x1="0" y1="0" x2="0" y2="1"><stop offset="0%" stop-color="#fffbeb"/><stop offset="100%" stop-color="#fef3c7"/></linearGradient></defs><rect width="600" height="400" fill="url(#bg)"/><g transform="translate(260,160)" fill="none" stroke="#f59e0b" stroke-width="1.5" stroke-linecap="round" stroke-linejoin="round"><rect x="4" y="28" width="72" height="44" rx="2"/><rect x="0" y="16" width="80" height="12" rx="2"/><line x1="40" y1="16" x2="40" y2="72"/><path d="M40 16 C40 16 28 0 18 0 C12 0 8 4 8 10 C8 16 14 16 40 16"/><path d="M40 16 C40 16 52 0 62 0 C68 0 72 4 72 10 C72 16 66 16 40 16"/></g></svg>
